# xmcd
# Track frame offsets:
# 150
# 11063
# 22870
# 35825
# 47209
# 56896
# 74745
# 91570
# 110536
# 135268
# 145030
#
# Disc length: 2144 seconds
# Revision: 0
# Processed by: cddbd v1.5.1PL0 Copyright (c) Steve Scherf et al.
# Submitted via: VisiTrax 2.9.10.228 - For more info visit www.synapsa.com
#
DISCID=94085e0b
DTITLE=Rita Engedalen - Hear My Song
DYEAR=2004
DGENRE=Blues
TTITLE0=Trouble In Mind
TTITLE1=Walk On
TTITLE2=Real Man
TTITLE3=Juke Joint Yodel
TTITLE4=Shine With Me
TTITLE5=Sister Town
TTITLE6=What Good Can Drinkin` Do ?
TTITLE7=Shake A Hand
TTITLE8=Angel In Disquise
TTITLE9=Hear My Song
TTITLE10=Nobody Knows My Mother Better Than Me
EXTD=BTR 1012
EXTT0=
EXTT1=
EXTT2=
EXTT3=
EXTT4=
EXTT5=
EXTT6=
EXTT7=
EXTT8=
EXTT9=
EXTT10=
PLAYORDER=
